<svg data-name="Layer 1" xmlns="http://www.w3.org/2000/svg" width="854.63024" height="686" viewBox="0 0 854.63024 686">
    <rect id="backgroundrect" width="100%" height="100%" x="0" y="0" fill="none" stroke="none" />
    <title>runner_start</title>
    <g class="currentLayer" style="">
        <title>Layer 1</title>
        <rect y="600" width="821" height="9.052630424499512" fill="#3f3d56" id="svg_1" />
        <rect y="676.9473876953125" width="821" height="9.052630424499512" fill="#3f3d56" id="svg_2" />
        <path d="M750.1778564453125,608.32763671875 c-0.49066999554634094,-0.8017799854278564 -12.060070037841797,-20.119600296020508 -16.070999145507812,-60.2335205078125 c-3.678999900817871,-36.80241012573242 -1.313330054283142,-98.83576202392578 30.857999801635742,-185.36715698242188 c60.947601318359375,-163.92799377441406 -14.045720100402832,-296.194091796875 -14.812000274658203,-297.5115661621094 l3.6998701095581055,-2.146430015563965 c0.19417999684810638,0.3340800106525421 19.54541015625,34.0567512512207 30.976999282836914,87.75495147705078 a382.84576416015625,382.84576416015625 0 0 1 -15.855999946594238,213.39385986328125 C708.1304931640625,527.8660278320312 753.3641357421875,605.3355712890625 753.82763671875,606.0997924804688 z" fill="#3f3d56" id="svg_3" />
        <circle cx="726.3458862304688" cy="27.794950485229492" r="27.794950485229492" fill="#3f3d56" id="svg_4" />
        <circle cx="814.0068359375" cy="130.4224395751953" r="27.794950485229492" fill="#3f3d56" id="svg_5" />
        <circle cx="754.1408081054688" cy="198.8407745361328" r="27.794950485229492" fill="#FF0083" id="svg_6" class="" fill-opacity="1" />
        <circle cx="826.8352661132812" cy="256.5687255859375" r="27.794950485229492" fill="#FF0083" id="svg_7" class="selected" fill-opacity="1" />
        <circle cx="732.7600708007812" cy="346.3677978515625" r="27.794950485229492" fill="#3f3d56" id="svg_8" />
        <path d="M766.96923828125,609.3507690429688 s-27.794940948486328,-68.41832733154297 55.589900970458984,-119.7320785522461 z" fill="#3f3d56" id="svg_9" />
        <path d="M732.7857666015625,608.1096801757812 s-12.64972972869873,-72.75720977783203 -110.5565414428711,-72.13362121582031 z" fill="#3f3d56" id="svg_10" />
        <circle cx="136.5" cy="387.5" r="41" fill="#a0616a" id="svg_11" />
        <path d="M143.92831420898438,336.5039367675781 c-7.840950012207031,-1.9254100322723389 -16.272409439086914,-2.246659994125366 -23.868600845336914,0.48934000730514526 c-7.823319911956787,2.81781005859375 -14.263070106506348,8.70853042602539 -18.99966049194336,15.542940139770508 s-7.917689800262451,14.612600326538086 -10.767279624938965,22.424400329589844 a78.44181060791016,78.44181060791016 0 0 0 -3.8444299697875977,13.139820098876953 a44.99217987060547,44.99217987060547 0 0 0 8.1668701171875,34.32543182373047 c-1.2006399631500244,-3.165640115737915 1.8222299814224243,-6.616889953613281 5.137770175933838,-7.302460193634033 s6.692999839782715,0.4740000069141388 9.96284008026123,1.3521499633789062 a61.558998107910156,61.558998107910156 0 0 0 17.68000030517578,2.0785200595855713 c2.2841899394989014,-0.06471999734640121 4.678860187530518,-0.2946999967098236 6.5784101486206055,-1.5649000406265259 c5.951610088348389,-3.9797799587249756 2.8013200759887695,-14.263660430908203 7.753729820251465,-19.434139251708984 c1.7674200534820557,-1.8452399969100952 4.289490222930908,-2.708120107650757 6.567450046539307,-3.8655200004577637 c8.20044994354248,-4.166510105133057 13.604089736938477,-12.575469970703125 16.155330657958984,-21.412830352783203 c1.5989999771118164,-5.538879871368408 5.567319869995117,-21.449399948120117 2.1851000785827637,-26.597999572753906 C163.57931518554688,341.0260009765625 149.11959838867188,337.7786865234375 143.92831420898438,336.5039367675781 z" fill="#2f2e41" id="svg_12" />
        <path d="M248.06649780273438,342.2911682128906 a24.39569091796875,24.39569091796875 0 0 0 -18.67736053466797,1.0412499904632568 c-10.694769859313965,5.015560150146484 -29.607900619506836,17.16699981689453 -28.889129638671875,40.16756820678711 c1,32 12,53 12,53 l-2,65 l-10,118 s-49,40 -30,50 s51,-48 51,-48 l25,-67 l9,-65 s15,-68 0,-98 C255.5,391.5 272.82843017578125,351.32952880859375 248.06649780273438,342.2911682128906 z" fill="#a0616a" id="svg_13" />
        <path d="M367.5,445.5 s-17,72 43,92 s139,54 139,54 l10,17 l23,-31 l-4,-24 l-39,-11 s-73,-56 -105,-60 l4,-37 z" fill="#a0616a" id="svg_14" />
        <path d="M527.30712890625,387.7170104980469 L548.5,422.5 s70,40 88,67 s61,56 61,56 l-19,45 s-54,-63 -77,-69 s-125,-88 -125,-88 z" fill="#a0616a" id="svg_15" />
        <path d="M338.5683288574219,265.81878662109375 c-7.805669784545898,1.2263599634170532 -15.617609977722168,2.453900098800659 -23.32958984375,4.173759937286377 c-17.91806983947754,3.9959299564361572 -35.14786911010742,10.616239547729492 -51.96678924560547,17.97481918334961 a608.4047241210938,608.4047241210938 0 0 0 -68.44722747802734,35.266998291015625 a132.25462341308594,132.25462341308594 0 0 0 -16.968769073486328,11.52223014831543 c-3.559809923171997,2.964790105819702 -6.910999774932861,6.363379955291748 -8.820480346679688,10.584280014038086 a33.40584182739258,33.40584182739258 0 0 0 -2.3296399116516113,9.221240043640137 c-1.550469994544983,11.119930267333984 -1.4782600402832031,22.594480514526367 1.5345499515533447,33.41019058227539 s9.123530387878418,20.954679489135742 18.11833953857422,27.674070358276367 a29.87969970703125,29.87969970703125 0 0 0 7.841219902038574,4.347360134124756 a45.675289154052734,45.675289154052734 0 0 0 11.674150466918945,1.9573099613189697 c12.61732006072998,1.0032999515533447 25.798080444335938,1.923069953918457 37.47386932373047,-2.9635798931121826 c7.41963005065918,-3.1053199768066406 13.70125961303711,-8.354700088500977 20.52849006652832,-12.607099533081055 c28.912519454956055,-18.008380889892578 65.6458969116211,-17.241579055786133 97.26049041748047,-29.920440673828125 c3.073349952697754,-1.2325400114059448 6.203269958496094,-2.6700000762939453 8.352999687194824,-5.1885600090026855 a22.57756996154785,22.57756996154785 0 0 0 3.619729995727539,-7.187640190124512 q5.995450019836426,-16.593679428100586 11.990920066833496,-33.18735885620117 c2.532639980316162,-7.009590148925781 5.06682014465332,-14.023859977722168 7.192580223083496,-21.167369842529297 c2.2235000133514404,-7.471930027008057 3.995460033416748,-15.0693998336792 5.765999794006348,-22.66143035888672 c1.5235799551010132,-6.533170223236084 3.0927999019622803,-13.375909805297852 2.506999969482422,-20.12980079650879 c-0.8640000224113464,-9.962220191955566 -3.166260004043579,-10.366629600524902 -12.315999984741211,-8.924590110778809 Q363.4111328125,261.9279479980469 338.5683288574219,265.81878662109375 z" fill="#0CC2CC" id="svg_16" class="" fill-opacity="1" />
        <path d="M218.06649780273438,342.2911682128906 a24.39569091796875,24.39569091796875 0 0 0 -18.67736053466797,1.0412499904632568 c-10.694769859313965,5.015560150146484 -29.607900619506836,17.16699981689453 -28.889129638671875,40.16756820678711 c1,32 12,53 12,53 l-2,65 l-10,118 s-49,40 -30,50 s51,-48 51,-48 l25,-67 l9,-65 s15,-68 0,-98 C225.5,391.5 242.82843017578125,351.32952880859375 218.06649780273438,342.2911682128906 z" fill="#a0616a" id="svg_17" />
        <path d="M391.6597900390625,257.543701171875 s88.84020233154297,-8.043700218200684 84.84020233154297,46.956298828125 s-34,150 -34,150 l-77,4 s-10,-65 4,-87 z" fill="#2f2e41" id="svg_18" />
        <path d="M453.5,275.5 s22,14 34,42 s48,83 48,83 l-59,42 l-44,-45 z" fill="#2f2e41" id="svg_19" />
        <path d="M559.5,587.5 s-19,7 -6,21 a126.60929870605469,126.60929870605469 0 0 1 20,29 s-4,26 13,25 s24,-36 20,-48 s-9,-69 -9,-69 s-35,3 -34,8 S569.5,583.5 559.5,587.5 z" fill="#2f2e41" id="svg_20" />
        <path d="M678.5,567.5 s-18,9 -13,17 s21,31 21,31 s-6,30 11,33 s27,-36 24,-44 s-3,-39 -3,-39 s1,-31 -9,-31 s-27,4 -27,4 S686.5,566.5 678.5,567.5 z" fill="#2f2e41" id="svg_21" />
        <rect x="96" y="617.8707885742188" width="29" height="50.6124382019043" fill="#FF0083" id="svg_22" class="" opacity="1" fill-opacity="1" />
    </g>
</svg>
